<svg xmlns="http://www.w3.org/2000/svg" width="1180" height="1063" viewBox="0 0 1180 1063" role="img" aria-labelledby="title desc">
<title id="title">Ryzen AI Max+ 395 262K throughput comparison</title>
<desc id="desc">Horizontal grouped bar chart comparing model generation speed and full request speed for selected local GGUF benchmark profiles on Ryzen AI Max+ 395 at 262K context.</desc>
<rect width="1180" height="1063" fill="#fbfcfd"/>
<rect x="20" y="20" width="1140" height="1023" rx="8" fill="#ffffff" stroke="#e5ebf0"/>
<text x="42" y="62" font-family="Inter, Segoe UI, Arial, sans-serif" font-size="30" font-weight="700" fill="#17202a">Ryzen AI Max+ 395 262K tok/s comparison</text>
<text x="42" y="91" font-family="Inter, Segoe UI, Arial, sans-serif" font-size="15" fill="#5e6b78">Radeon 8060S, Windows HIP/ROCm, single-slot llama.cpp runs</text>
<text x="42" y="116" font-family="Inter, Segoe UI, Arial, sans-serif" font-size="13" fill="#5e6b78">Curated from source-of-truth profile rows. Completion and prompt lengths vary, so treat this as a profile ranking rather than a fully controlled sweep.</text>
<rect x="855" y="53" width="14" height="14" rx="2" fill="#2468c9"/>
<text x="877" y="65" font-family="Inter, Segoe UI, Arial, sans-serif" font-size="14" fill="#17202a">generation only (eval)</text>
<rect x="855" y="78" width="14" height="14" rx="2" fill="#c76b22"/>
<text x="877" y="90" font-family="Inter, Segoe UI, Arial, sans-serif" font-size="14" fill="#17202a">full request (wall)</text>
<line x1="390.0" y1="136" x2="390.0" y2="943" stroke="#d8e0e8" stroke-width="1"/>
<text x="390.0" y="965" text-anchor="middle" font-family="Inter, Segoe UI, Arial, sans-serif" font-size="12" fill="#5e6b78">0</text>
<line x1="501.7" y1="136" x2="501.7" y2="943" stroke="#d8e0e8" stroke-width="1"/>
<text x="501.7" y="965" text-anchor="middle" font-family="Inter, Segoe UI, Arial, sans-serif" font-size="12" fill="#5e6b78">10</text>
<line x1="613.3" y1="136" x2="613.3" y2="943" stroke="#d8e0e8" stroke-width="1"/>
<text x="613.3" y="965" text-anchor="middle" font-family="Inter, Segoe UI, Arial, sans-serif" font-size="12" fill="#5e6b78">20</text>
<line x1="725.0" y1="136" x2="725.0" y2="943" stroke="#d8e0e8" stroke-width="1"/>
<text x="725.0" y="965" text-anchor="middle" font-family="Inter, Segoe UI, Arial, sans-serif" font-size="12" fill="#5e6b78">30</text>
<line x1="836.7" y1="136" x2="836.7" y2="943" stroke="#d8e0e8" stroke-width="1"/>
<text x="836.7" y="965" text-anchor="middle" font-family="Inter, Segoe UI, Arial, sans-serif" font-size="12" fill="#5e6b78">40</text>
<line x1="948.3" y1="136" x2="948.3" y2="943" stroke="#d8e0e8" stroke-width="1"/>
<text x="948.3" y="965" text-anchor="middle" font-family="Inter, Segoe UI, Arial, sans-serif" font-size="12" fill="#5e6b78">50</text>
<line x1="1060.0" y1="136" x2="1060.0" y2="943" stroke="#d8e0e8" stroke-width="1"/>
<text x="1060.0" y="965" text-anchor="middle" font-family="Inter, Segoe UI, Arial, sans-serif" font-size="12" fill="#5e6b78">60</text>
<text x="725.0" y="991" text-anchor="middle" font-family="Inter, Segoe UI, Arial, sans-serif" font-size="13" fill="#5e6b78">tokens per second</text>
<rect x="35" y="128" width="1092" height="58" rx="6" fill="#f7f9fb"/>
<text x="42" y="162" font-family="Inter, Segoe UI, Arial, sans-serif" font-size="15" font-weight="650" fill="#17202a">UD-Q4_K_XL - n=2 t24 ub1536</text>
<text x="42" y="183" font-family="Inter, Segoe UI, Arial, sans-serif" font-size="12" fill="#5e6b78">256 generated tokens - hip-mtp-n2-t24-ub1536</text>
<rect x="390" y="145" width="591.3" height="14" rx="3" fill="#2468c9"/>
<rect x="390" y="165" width="549.4" height="14" rx="3" fill="#c76b22"/>
<text x="989.3" y="156" font-family="Inter, Segoe UI, Arial, sans-serif" font-size="12" font-weight="650" fill="#17202a">52.95</text>
<text x="947.4" y="176" font-family="Inter, Segoe UI, Arial, sans-serif" font-size="12" font-weight="650" fill="#17202a">49.20</text>
<text x="42" y="228" font-family="Inter, Segoe UI, Arial, sans-serif" font-size="15" font-weight="650" fill="#17202a">UD-Q4_K_XL - n=2 t28 ub1536</text>
<text x="42" y="249" font-family="Inter, Segoe UI, Arial, sans-serif" font-size="12" fill="#5e6b78">256 generated tokens - hip-mtp-n2-t28-ub1536</text>
<rect x="390" y="211" width="579.2" height="14" rx="3" fill="#2468c9"/>
<rect x="390" y="231" width="539.6" height="14" rx="3" fill="#c76b22"/>
<text x="977.2" y="222" font-family="Inter, Segoe UI, Arial, sans-serif" font-size="12" font-weight="650" fill="#17202a">51.87</text>
<text x="937.6" y="242" font-family="Inter, Segoe UI, Arial, sans-serif" font-size="12" font-weight="650" fill="#17202a">48.32</text>
<rect x="35" y="260" width="1092" height="58" rx="6" fill="#f7f9fb"/>
<text x="42" y="294" font-family="Inter, Segoe UI, Arial, sans-serif" font-size="15" font-weight="650" fill="#17202a">UD-Q4_K_XL - n=2 t24 ub1536 rerun</text>
<text x="42" y="315" font-family="Inter, Segoe UI, Arial, sans-serif" font-size="12" fill="#5e6b78">256 generated tokens - hip-mtp-n2-t24-ub1536</text>
<rect x="390" y="277" width="577.9" height="14" rx="3" fill="#2468c9"/>
<rect x="390" y="297" width="537.8" height="14" rx="3" fill="#c76b22"/>
<text x="975.9" y="288" font-family="Inter, Segoe UI, Arial, sans-serif" font-size="12" font-weight="650" fill="#17202a">51.75</text>
<text x="935.8" y="308" font-family="Inter, Segoe UI, Arial, sans-serif" font-size="12" font-weight="650" fill="#17202a">48.16</text>
<text x="42" y="360" font-family="Inter, Segoe UI, Arial, sans-serif" font-size="15" font-weight="650" fill="#17202a">MXFP4_MOE - n=3 t28 ub1024</text>
<text x="42" y="381" font-family="Inter, Segoe UI, Arial, sans-serif" font-size="12" fill="#5e6b78">685 generated tokens - hip-mtp-n3-t28-ub1024</text>
<rect x="266" y="342" width="95" height="20" rx="4" fill="#e6f5ef" stroke="#a9d8ca"/>
<text x="313.5" y="356" text-anchor="middle" font-family="Inter, Segoe UI, Arial, sans-serif" font-size="11" font-weight="650" fill="#12715b">recommended</text>
<rect x="390" y="343" width="572.4" height="14" rx="3" fill="#2468c9"/>
<rect x="390" y="363" width="557.0" height="14" rx="3" fill="#c76b22"/>
<text x="970.4" y="354" font-family="Inter, Segoe UI, Arial, sans-serif" font-size="12" font-weight="650" fill="#17202a">51.26</text>
<text x="955.0" y="374" font-family="Inter, Segoe UI, Arial, sans-serif" font-size="12" font-weight="650" fill="#17202a">49.88</text>
<rect x="35" y="392" width="1092" height="58" rx="6" fill="#f7f9fb"/>
<text x="42" y="426" font-family="Inter, Segoe UI, Arial, sans-serif" font-size="15" font-weight="650" fill="#17202a">MXFP4_MOE - n=3 t24 ub1024</text>
<text x="42" y="447" font-family="Inter, Segoe UI, Arial, sans-serif" font-size="12" fill="#5e6b78">685 generated tokens - hip-mtp-n3-t24-ub1024</text>
<rect x="390" y="409" width="570.6" height="14" rx="3" fill="#2468c9"/>
<rect x="390" y="429" width="554.4" height="14" rx="3" fill="#c76b22"/>
<text x="968.6" y="420" font-family="Inter, Segoe UI, Arial, sans-serif" font-size="12" font-weight="650" fill="#17202a">51.10</text>
<text x="952.4" y="440" font-family="Inter, Segoe UI, Arial, sans-serif" font-size="12" font-weight="650" fill="#17202a">49.65</text>
<text x="42" y="492" font-family="Inter, Segoe UI, Arial, sans-serif" font-size="15" font-weight="650" fill="#17202a">MXFP4_MOE - n=4 t24 ub1536</text>
<text x="42" y="513" font-family="Inter, Segoe UI, Arial, sans-serif" font-size="12" fill="#5e6b78">702 generated tokens - hip-mtp-n4-t24-ub1536</text>
<rect x="390" y="475" width="550.7" height="14" rx="3" fill="#2468c9"/>
<rect x="390" y="495" width="537.1" height="14" rx="3" fill="#c76b22"/>
<text x="948.7" y="486" font-family="Inter, Segoe UI, Arial, sans-serif" font-size="12" font-weight="650" fill="#17202a">49.32</text>
<text x="935.1" y="506" font-family="Inter, Segoe UI, Arial, sans-serif" font-size="12" font-weight="650" fill="#17202a">48.10</text>
<rect x="35" y="524" width="1092" height="58" rx="6" fill="#f7f9fb"/>
<text x="42" y="558" font-family="Inter, Segoe UI, Arial, sans-serif" font-size="15" font-weight="650" fill="#17202a">MXFP4_MOE - no MTP t28 ub1024</text>
<text x="42" y="579" font-family="Inter, Segoe UI, Arial, sans-serif" font-size="12" fill="#5e6b78">512 generated tokens - hip-no-mtp-t28-ub1024</text>
<rect x="390" y="541" width="424.0" height="14" rx="3" fill="#2468c9"/>
<rect x="390" y="561" width="413.9" height="14" rx="3" fill="#c76b22"/>
<text x="822.0" y="552" font-family="Inter, Segoe UI, Arial, sans-serif" font-size="12" font-weight="650" fill="#17202a">37.97</text>
<text x="811.9" y="572" font-family="Inter, Segoe UI, Arial, sans-serif" font-size="12" font-weight="650" fill="#17202a">37.07</text>
<text x="42" y="624" font-family="Inter, Segoe UI, Arial, sans-serif" font-size="15" font-weight="650" fill="#17202a">Ornith Q4_K_M - no MTP t28 ub1024</text>
<text x="42" y="645" font-family="Inter, Segoe UI, Arial, sans-serif" font-size="12" fill="#5e6b78">256 generated tokens - hip-no-mtp-t28-ub1024</text>
<rect x="390" y="607" width="396.0" height="14" rx="3" fill="#2468c9"/>
<rect x="390" y="627" width="377.8" height="14" rx="3" fill="#c76b22"/>
<text x="794.0" y="618" font-family="Inter, Segoe UI, Arial, sans-serif" font-size="12" font-weight="650" fill="#17202a">35.46</text>
<text x="775.8" y="638" font-family="Inter, Segoe UI, Arial, sans-serif" font-size="12" font-weight="650" fill="#17202a">33.83</text>
<rect x="35" y="656" width="1092" height="58" rx="6" fill="#f7f9fb"/>
<text x="42" y="690" font-family="Inter, Segoe UI, Arial, sans-serif" font-size="15" font-weight="650" fill="#17202a">Ornith Q4_K_M - 174.6K prompt</text>
<text x="42" y="711" font-family="Inter, Segoe UI, Arial, sans-serif" font-size="12" fill="#5e6b78">1024 generated tokens - hip-no-mtp-t28-ub1024</text>
<rect x="390" y="673" width="205.1" height="14" rx="3" fill="#2468c9"/>
<rect x="390" y="693" width="12.2" height="14" rx="3" fill="#c76b22"/>
<text x="603.1" y="684" font-family="Inter, Segoe UI, Arial, sans-serif" font-size="12" font-weight="650" fill="#17202a">18.37</text>
<text x="410.2" y="704" font-family="Inter, Segoe UI, Arial, sans-serif" font-size="12" font-weight="650" fill="#17202a">1.09</text>
<text x="42" y="756" font-family="Inter, Segoe UI, Arial, sans-serif" font-size="15" font-weight="650" fill="#17202a">Ornith Q5_K_M - no MTP t28 ub1024</text>
<text x="42" y="777" font-family="Inter, Segoe UI, Arial, sans-serif" font-size="12" fill="#5e6b78">256 generated tokens - hip-no-mtp-t28-ub1024</text>
<rect x="390" y="739" width="389.0" height="14" rx="3" fill="#2468c9"/>
<rect x="390" y="759" width="367.6" height="14" rx="3" fill="#c76b22"/>
<text x="787.0" y="750" font-family="Inter, Segoe UI, Arial, sans-serif" font-size="12" font-weight="650" fill="#17202a">34.84</text>
<text x="765.6" y="770" font-family="Inter, Segoe UI, Arial, sans-serif" font-size="12" font-weight="650" fill="#17202a">32.92</text>
<rect x="35" y="788" width="1092" height="58" rx="6" fill="#f7f9fb"/>
<text x="42" y="822" font-family="Inter, Segoe UI, Arial, sans-serif" font-size="15" font-weight="650" fill="#17202a">Ornith Q5_K_M - 174.6K prompt</text>
<text x="42" y="843" font-family="Inter, Segoe UI, Arial, sans-serif" font-size="12" fill="#5e6b78">1024 generated tokens - hip-no-mtp-t28-ub1024</text>
<rect x="390" y="805" width="201.3" height="14" rx="3" fill="#2468c9"/>
<rect x="390" y="825" width="12.5" height="14" rx="3" fill="#c76b22"/>
<text x="599.3" y="816" font-family="Inter, Segoe UI, Arial, sans-serif" font-size="12" font-weight="650" fill="#17202a">18.03</text>
<text x="410.5" y="836" font-family="Inter, Segoe UI, Arial, sans-serif" font-size="12" font-weight="650" fill="#17202a">1.12</text>
<text x="42" y="888" font-family="Inter, Segoe UI, Arial, sans-serif" font-size="15" font-weight="650" fill="#17202a">UD-Q4_K_XL - Studio-like baseline</text>
<text x="42" y="909" font-family="Inter, Segoe UI, Arial, sans-serif" font-size="12" fill="#5e6b78">256 generated tokens - hip-studio-mtp-n2-262k</text>
<rect x="390" y="871" width="255.5" height="14" rx="3" fill="#2468c9"/>
<rect x="390" y="891" width="232.5" height="14" rx="3" fill="#c76b22"/>
<text x="653.5" y="882" font-family="Inter, Segoe UI, Arial, sans-serif" font-size="12" font-weight="650" fill="#17202a">22.88</text>
<text x="630.5" y="902" font-family="Inter, Segoe UI, Arial, sans-serif" font-size="12" font-weight="650" fill="#17202a">20.82</text>
<text x="42" y="1009" font-family="Inter, Segoe UI, Arial, sans-serif" font-size="12" fill="#5e6b78">Source: raw benchmark CSVs under results/ and model summaries under docs/models/.</text>
<text x="42" y="1029" font-family="Inter, Segoe UI, Arial, sans-serif" font-size="12" fill="#5e6b78">Eval is model token generation only; wall is the full request time and is closer to what users feel.</text>
</svg>
