<svg xmlns="http://www.w3.org/2000/svg" width="1180" height="830" viewBox="0 0 1180 830" role="img" aria-labelledby="title desc">
<title id="title">Qwen3.6 35B-A3B 262K throughput comparison</title>
<desc id="desc">Horizontal grouped bar chart comparing model generation speed and full request speed for selected benchmark profiles on Ryzen AI Max+ 395 at 262K context.</desc>
<rect width="1180" height="830" fill="#fbfcfd"/>
<rect x="20" y="20" width="1140" height="790" rx="8" fill="#ffffff" stroke="#e5ebf0"/>
<text x="42" y="62" font-family="Inter, Segoe UI, Arial, sans-serif" font-size="30" font-weight="700" fill="#17202a">Qwen3.6 35B-A3B 262K tok/s comparison</text>
<text x="42" y="91" font-family="Inter, Segoe UI, Arial, sans-serif" font-size="15" fill="#5e6b78">Ryzen AI Max+ 395 / Radeon 8060S, Windows HIP/ROCm, single-slot llama.cpp runs</text>
<text x="42" y="116" font-family="Inter, Segoe UI, Arial, sans-serif" font-size="13" fill="#5e6b78">Curated from source-of-truth best/profile rows. Completion lengths vary, so treat this as a profile ranking rather than a fully controlled sweep.</text>
<rect x="855" y="53" width="14" height="14" rx="2" fill="#2468c9"/>
<text x="877" y="65" font-family="Inter, Segoe UI, Arial, sans-serif" font-size="14" fill="#17202a">generation only (eval)</text>
<rect x="855" y="78" width="14" height="14" rx="2" fill="#c76b22"/>
<text x="877" y="90" font-family="Inter, Segoe UI, Arial, sans-serif" font-size="14" fill="#17202a">full request (wall)</text>
<line x1="390.0" y1="137" x2="390.0" y2="691" stroke="#d8e0e8" stroke-width="1"/>
<text x="390.0" y="713" text-anchor="middle" font-family="Inter, Segoe UI, Arial, sans-serif" font-size="12" fill="#5e6b78">0</text>
<line x1="501.7" y1="137" x2="501.7" y2="691" stroke="#d8e0e8" stroke-width="1"/>
<text x="501.7" y="713" text-anchor="middle" font-family="Inter, Segoe UI, Arial, sans-serif" font-size="12" fill="#5e6b78">10</text>
<line x1="613.3" y1="137" x2="613.3" y2="691" stroke="#d8e0e8" stroke-width="1"/>
<text x="613.3" y="713" text-anchor="middle" font-family="Inter, Segoe UI, Arial, sans-serif" font-size="12" fill="#5e6b78">20</text>
<line x1="725.0" y1="137" x2="725.0" y2="691" stroke="#d8e0e8" stroke-width="1"/>
<text x="725.0" y="713" text-anchor="middle" font-family="Inter, Segoe UI, Arial, sans-serif" font-size="12" fill="#5e6b78">30</text>
<line x1="836.7" y1="137" x2="836.7" y2="691" stroke="#d8e0e8" stroke-width="1"/>
<text x="836.7" y="713" text-anchor="middle" font-family="Inter, Segoe UI, Arial, sans-serif" font-size="12" fill="#5e6b78">40</text>
<line x1="948.3" y1="137" x2="948.3" y2="691" stroke="#d8e0e8" stroke-width="1"/>
<text x="948.3" y="713" text-anchor="middle" font-family="Inter, Segoe UI, Arial, sans-serif" font-size="12" fill="#5e6b78">50</text>
<line x1="1060.0" y1="137" x2="1060.0" y2="691" stroke="#d8e0e8" stroke-width="1"/>
<text x="1060.0" y="713" text-anchor="middle" font-family="Inter, Segoe UI, Arial, sans-serif" font-size="12" fill="#5e6b78">60</text>
<text x="725.0" y="739" text-anchor="middle" font-family="Inter, Segoe UI, Arial, sans-serif" font-size="13" fill="#5e6b78">tokens per second</text>
<rect x="35" y="129" width="1092" height="58" rx="6" fill="#f7f9fb"/>
<text x="42" y="163" font-family="Inter, Segoe UI, Arial, sans-serif" font-size="15" font-weight="650" fill="#17202a">UD-Q4_K_XL · n=2 t24 ub1536</text>
<text x="42" y="184" font-family="Inter, Segoe UI, Arial, sans-serif" font-size="12" fill="#5e6b78">256 generated tokens · hip-mtp-n2-t24-ub1536</text>
<rect x="390" y="148" width="591.3" height="14" rx="3" fill="#2468c9"/>
<rect x="390" y="168" width="549.4" height="14" rx="3" fill="#c76b22"/>
<text x="989.3" y="159" font-family="Inter, Segoe UI, Arial, sans-serif" font-size="12" font-weight="650" fill="#17202a">52.95</text>
<text x="947.4" y="179" font-family="Inter, Segoe UI, Arial, sans-serif" font-size="12" font-weight="650" fill="#17202a">49.20</text>
<text x="42" y="229" font-family="Inter, Segoe UI, Arial, sans-serif" font-size="15" font-weight="650" fill="#17202a">UD-Q4_K_XL · n=2 t28 ub1536</text>
<text x="42" y="250" font-family="Inter, Segoe UI, Arial, sans-serif" font-size="12" fill="#5e6b78">256 generated tokens · hip-mtp-n2-t28-ub1536</text>
<rect x="390" y="214" width="579.2" height="14" rx="3" fill="#2468c9"/>
<rect x="390" y="234" width="539.6" height="14" rx="3" fill="#c76b22"/>
<text x="977.2" y="225" font-family="Inter, Segoe UI, Arial, sans-serif" font-size="12" font-weight="650" fill="#17202a">51.87</text>
<text x="937.6" y="245" font-family="Inter, Segoe UI, Arial, sans-serif" font-size="12" font-weight="650" fill="#17202a">48.32</text>
<rect x="35" y="261" width="1092" height="58" rx="6" fill="#f7f9fb"/>
<text x="42" y="295" font-family="Inter, Segoe UI, Arial, sans-serif" font-size="15" font-weight="650" fill="#17202a">UD-Q4_K_XL · n=2 t24 ub1536 rerun</text>
<text x="42" y="316" font-family="Inter, Segoe UI, Arial, sans-serif" font-size="12" fill="#5e6b78">256 generated tokens · hip-mtp-n2-t24-ub1536</text>
<rect x="390" y="280" width="577.9" height="14" rx="3" fill="#2468c9"/>
<rect x="390" y="300" width="537.8" height="14" rx="3" fill="#c76b22"/>
<text x="975.9" y="291" font-family="Inter, Segoe UI, Arial, sans-serif" font-size="12" font-weight="650" fill="#17202a">51.75</text>
<text x="935.8" y="311" font-family="Inter, Segoe UI, Arial, sans-serif" font-size="12" font-weight="650" fill="#17202a">48.16</text>
<text x="42" y="361" font-family="Inter, Segoe UI, Arial, sans-serif" font-size="15" font-weight="650" fill="#17202a">MXFP4_MOE · n=3 t28 ub1024</text>
<text x="42" y="382" font-family="Inter, Segoe UI, Arial, sans-serif" font-size="12" fill="#5e6b78">685 generated tokens · hip-mtp-n3-t28-ub1024</text>
<rect x="266" y="345" width="95" height="20" rx="4" fill="#e6f5ef" stroke="#a9d8ca"/>
<text x="313.5" y="359" text-anchor="middle" font-family="Inter, Segoe UI, Arial, sans-serif" font-size="11" font-weight="650" fill="#12715b">recommended</text>
<rect x="390" y="346" width="572.4" height="14" rx="3" fill="#2468c9"/>
<rect x="390" y="366" width="557.0" height="14" rx="3" fill="#c76b22"/>
<text x="970.4" y="357" font-family="Inter, Segoe UI, Arial, sans-serif" font-size="12" font-weight="650" fill="#17202a">51.26</text>
<text x="955.0" y="377" font-family="Inter, Segoe UI, Arial, sans-serif" font-size="12" font-weight="650" fill="#17202a">49.88</text>
<rect x="35" y="393" width="1092" height="58" rx="6" fill="#f7f9fb"/>
<text x="42" y="427" font-family="Inter, Segoe UI, Arial, sans-serif" font-size="15" font-weight="650" fill="#17202a">MXFP4_MOE · n=3 t24 ub1024</text>
<text x="42" y="448" font-family="Inter, Segoe UI, Arial, sans-serif" font-size="12" fill="#5e6b78">685 generated tokens · hip-mtp-n3-t24-ub1024</text>
<rect x="390" y="412" width="570.6" height="14" rx="3" fill="#2468c9"/>
<rect x="390" y="432" width="554.4" height="14" rx="3" fill="#c76b22"/>
<text x="968.6" y="423" font-family="Inter, Segoe UI, Arial, sans-serif" font-size="12" font-weight="650" fill="#17202a">51.10</text>
<text x="952.4" y="443" font-family="Inter, Segoe UI, Arial, sans-serif" font-size="12" font-weight="650" fill="#17202a">49.65</text>
<text x="42" y="493" font-family="Inter, Segoe UI, Arial, sans-serif" font-size="15" font-weight="650" fill="#17202a">MXFP4_MOE · n=4 t24 ub1536</text>
<text x="42" y="514" font-family="Inter, Segoe UI, Arial, sans-serif" font-size="12" fill="#5e6b78">702 generated tokens · hip-mtp-n4-t24-ub1536</text>
<rect x="390" y="478" width="550.7" height="14" rx="3" fill="#2468c9"/>
<rect x="390" y="498" width="537.1" height="14" rx="3" fill="#c76b22"/>
<text x="948.7" y="489" font-family="Inter, Segoe UI, Arial, sans-serif" font-size="12" font-weight="650" fill="#17202a">49.32</text>
<text x="935.1" y="509" font-family="Inter, Segoe UI, Arial, sans-serif" font-size="12" font-weight="650" fill="#17202a">48.10</text>
<rect x="35" y="525" width="1092" height="58" rx="6" fill="#f7f9fb"/>
<text x="42" y="559" font-family="Inter, Segoe UI, Arial, sans-serif" font-size="15" font-weight="650" fill="#17202a">MXFP4_MOE · no MTP t28 ub1024</text>
<text x="42" y="580" font-family="Inter, Segoe UI, Arial, sans-serif" font-size="12" fill="#5e6b78">512 generated tokens · hip-no-mtp-t28-ub1024</text>
<rect x="390" y="544" width="424.0" height="14" rx="3" fill="#2468c9"/>
<rect x="390" y="564" width="413.9" height="14" rx="3" fill="#c76b22"/>
<text x="822.0" y="555" font-family="Inter, Segoe UI, Arial, sans-serif" font-size="12" font-weight="650" fill="#17202a">37.97</text>
<text x="811.9" y="575" font-family="Inter, Segoe UI, Arial, sans-serif" font-size="12" font-weight="650" fill="#17202a">37.07</text>
<text x="42" y="625" font-family="Inter, Segoe UI, Arial, sans-serif" font-size="15" font-weight="650" fill="#17202a">UD-Q4_K_XL · Studio-like baseline</text>
<text x="42" y="646" font-family="Inter, Segoe UI, Arial, sans-serif" font-size="12" fill="#5e6b78">256 generated tokens · hip-studio-mtp-n2-262k</text>
<rect x="390" y="610" width="255.5" height="14" rx="3" fill="#2468c9"/>
<rect x="390" y="630" width="232.5" height="14" rx="3" fill="#c76b22"/>
<text x="653.5" y="621" font-family="Inter, Segoe UI, Arial, sans-serif" font-size="12" font-weight="650" fill="#17202a">22.88</text>
<text x="630.5" y="641" font-family="Inter, Segoe UI, Arial, sans-serif" font-size="12" font-weight="650" fill="#17202a">20.82</text>
<text x="42" y="776" font-family="Inter, Segoe UI, Arial, sans-serif" font-size="12" fill="#5e6b78">Source: raw benchmark CSVs under results/qwen36-35b-a3b-mtp-262k/ and model summaries under docs/models/.</text>
<text x="42" y="796" font-family="Inter, Segoe UI, Arial, sans-serif" font-size="12" fill="#5e6b78">Eval is model token generation only; wall is the full request time and is closer to what users feel.</text>
</svg>
